<?xml version="1.0" encoding="UTF-8" standalone="no"?>
<!-- Created with Inkscape (http://www.inkscape.org/) -->

<svg
   width="120.01609mm"
   height="121.41138mm"
   viewBox="0 0 120.01609 121.41138"
   version="1.1"
   id="svg1"
   xml:space="preserve"
   xmlns="http://www.w3.org/2000/svg"
   xmlns:svg="http://www.w3.org/2000/svg"><defs
     id="defs1" /><g
     id="layer1"
     transform="translate(-509.73446,-253.12816)"><g
       id="g4"
       transform="translate(-1.1040892,1.1040892)"><g
         id="g3"><path
           d="m 590.43941,256.01021 -11.46441,6.61924 a 16.257187,16.257187 0 0 1 -16.25689,0 l -11.46442,-6.61872 c -7.2441,2.50244 -13.94194,6.3691 -19.73109,11.39155 v 13.23744 a 16.257255,16.257255 0 0 1 -8.12819,14.07924 l -11.46442,6.61924 c -1.45499,7.52477 -1.45539,15.25883 -5.1e-4,22.78362 l 11.46441,6.61872 a 16.257213,16.257213 0 0 1 8.12871,14.07924 v 13.23795 c 4.47345,3.88072 11.027,8.38483 19.73161,11.39155 l 11.4639,-6.61871 a 16.257054,16.257054 0 0 1 16.2574,0 l 11.4639,6.61871 c 7.2441,-2.50243 13.94195,-6.36911 19.7311,-11.39155 v -13.23847 a 16.257243,16.257243 0 0 1 8.1287,-14.07872 l 11.4639,-6.61872 c 1.45499,-7.52478 1.4554,-15.25882 5.2e-4,-22.78362 l -11.46442,-6.61872 a 16.257048,16.257048 0 0 1 -8.1287,-14.07925 l 5.1e-4,-13.23743 h -5.1e-4 c -4.47339,-3.88103 -11.02687,-8.38556 -19.7311,-11.39259 z m -19.59312,16.93902 a 39.781085,39.781085 0 0 1 19.89026,5.32939 39.781085,39.781085 0 0 1 14.56139,54.3419 39.781085,39.781085 0 0 1 -54.34191,14.56036 39.781085,39.781085 0 0 1 -14.56086,-54.34139 39.781085,39.781085 0 0 1 34.45112,-19.89026 z"
           style="fill:#25d366;fill-opacity:1;stroke-width:0;stroke-linecap:round;stroke-linejoin:round;paint-order:markers fill stroke"
           id="path2" /></g><path
         fill="#25d366"
         fill-rule="evenodd"
         d="m 595.31625,323.43991 c -1.33973,-0.67106 -7.92741,-3.9112 -9.15675,-4.35847 -1.22904,-0.44758 -2.12119,-0.67107 -3.01366,0.67106 -0.89215,1.34243 -3.46093,4.36117 -4.24268,5.25333 -0.78177,0.89486 -1.56352,1.00555 -2.90327,0.33419 -1.33943,-0.67107 -5.65692,-2.0853 -10.77651,-6.64961 -3.98301,-3.55368 -6.67295,-7.94028 -7.45441,-9.28271 -0.78176,-1.34213 -0.0823,-2.06734 0.5861,-2.73332 0.60165,-0.60166 1.33973,-1.56592 2.01079,-2.34768 0.67137,-0.78176 0.89247,-1.34213 1.33974,-2.23459 0.44758,-0.89485 0.22379,-1.67631 -0.11036,-2.34767 -0.33449,-0.67106 -3.01366,-7.26682 -4.1323,-9.94868 -1.08782,-2.61245 -2.1933,-2.25763 -3.01366,-2.30131 -0.78175,-0.0389 -1.67392,-0.0464 -2.56877,-0.0464 -0.89485,0 -2.34529,0.33449 -3.57431,1.67662 -1.22904,1.34212 -4.69028,4.58465 -4.69028,11.17771 0,6.59307 4.80097,12.96772 5.47203,13.86258 0.67106,0.89485 9.44966,14.42803 22.89038,20.23424 3.19646,1.38072 5.69313,2.20617 7.6396,2.82339 3.20932,1.02079 6.13023,0.87689 8.43931,0.53224 2.57416,-0.38565 7.92771,-3.24254 9.04367,-6.37198 1.11594,-3.12943 1.11594,-5.81398 0.78176,-6.37196 -0.33419,-0.55797 -1.22904,-0.89485 -2.56878,-1.56592 z"
         clip-rule="evenodd"
         id="path1-5-7"
         style="stroke-width:0.299181"
         clip-path="none" /></g></g></svg>
