<?xml version="1.0" encoding="UTF-8" standalone="no"?>
<!-- Created with Inkscape (http://www.inkscape.org/) -->

<svg
   width="120.01612mm"
   height="121.41138mm"
   viewBox="0 0 120.01612 121.41138"
   version="1.1"
   id="svg1"
   xml:space="preserve"
   xmlns="http://www.w3.org/2000/svg"
   xmlns:svg="http://www.w3.org/2000/svg"><defs
     id="defs1" /><g
     id="layer1"
     transform="translate(-764.58029,-88.863693)"><g
       id="g6"
       transform="translate(404.09667,-4.0887324e-5)"><path
         style="fill:#1a1a1a;stroke-width:0;stroke-linecap:round;stroke-linejoin:round;paint-order:markers fill stroke"
         d="m 459.81556,104.24219 c -4.47339,-3.88103 -11.02671,-8.385234 -19.73094,-11.392265 l -11.46439,6.619049 a 16.257187,16.257187 179.99985 0 1 -16.25726,4.1e-5 l -11.46427,-6.6189 c -7.2441,2.502442 -13.94177,6.369415 -19.73092,11.391865 l 9e-5,13.23752 a 16.257255,16.257255 119.99967 0 1 -8.12856,14.07926 l -11.46439,6.61905 c -1.45499,7.52477 -1.45505,15.2586 -1.7e-4,22.78339 l 11.46426,6.6189 a 16.257213,16.257213 60.000142 0 1 8.1286,14.07923 l -6e-5,13.23797 c 4.47345,3.88072 11.02729,8.3849 19.7319,11.39162 l 11.46373,-6.61878 a 16.257054,16.257054 179.99962 0 1 16.25723,-1.1e-4 l 11.46426,6.61889 c 7.2441,-2.50243 13.94177,-6.3694 19.73092,-11.39184 l 6e-5,-13.23797 a 16.257243,16.257243 120.00032 0 1 8.12871,-14.07917 l 11.46409,-6.61869 c 1.45499,-7.52478 1.45505,-15.25861 1.7e-4,-22.78341 l -11.46426,-6.61889 a 16.257048,16.257048 60.000372 0 1 -8.12852,-14.07923 l 1.7e-4,-13.23728 z"
         id="path67" /><path
         style="fill:#ececec;stroke-width:0;stroke-linecap:round;stroke-linejoin:round;paint-order:markers fill stroke"
         d="m 440.38189,115.11809 a 39.781085,39.781085 0 0 1 14.56093,54.34214 39.781085,39.781085 0 0 1 -54.34185,14.56043 39.781085,39.781085 0 0 1 -14.56072,-54.34135 39.781085,39.781085 0 0 1 54.34164,-14.56122 z"
         id="path54" /><path
         fill="#25d366"
         fill-rule="evenodd"
         d="m 444.96135,160.27951 c -1.33973,-0.67106 -7.92741,-3.9112 -9.15675,-4.35847 -1.22904,-0.44758 -2.12119,-0.67107 -3.01366,0.67106 -0.89215,1.34243 -3.46093,4.36117 -4.24268,5.25333 -0.78177,0.89486 -1.56352,1.00555 -2.90327,0.33419 -1.33943,-0.67107 -5.65692,-2.0853 -10.77651,-6.64961 -3.98301,-3.55368 -6.67295,-7.94028 -7.45441,-9.28271 -0.78176,-1.34213 -0.0823,-2.06734 0.5861,-2.73332 0.60165,-0.60166 1.33973,-1.56592 2.01079,-2.34768 0.67137,-0.78176 0.89247,-1.34213 1.33974,-2.23459 0.44758,-0.89485 0.22379,-1.67631 -0.11036,-2.34767 -0.33449,-0.67106 -3.01366,-7.26682 -4.1323,-9.94868 -1.08782,-2.61245 -2.1933,-2.25763 -3.01366,-2.30131 -0.78175,-0.0389 -1.67392,-0.0464 -2.56877,-0.0464 -0.89485,0 -2.34529,0.33449 -3.57431,1.67662 -1.22904,1.34212 -4.69028,4.58465 -4.69028,11.17771 0,6.59307 4.80097,12.96772 5.47203,13.86258 0.67106,0.89485 9.44966,14.42803 22.89038,20.23424 3.19646,1.38072 5.69313,2.20617 7.6396,2.82339 3.20932,1.02079 6.13023,0.87689 8.43931,0.53224 2.57416,-0.38565 7.92771,-3.24254 9.04367,-6.37198 1.11594,-3.12943 1.11594,-5.81398 0.78176,-6.37196 -0.33419,-0.55797 -1.22904,-0.89485 -2.56878,-1.56592 z"
         clip-rule="evenodd"
         id="path1"
         style="stroke-width:0.299181"
         clip-path="none" /></g></g></svg>
